<?xml version="1.0" encoding="UTF-8"?>
<svg id="Layer_1" data-name="Layer 1" xmlns="http://www.w3.org/2000/svg" version="1.1" viewBox="0 0 201.57 76.54">
  <defs>
    <style>
      .cls-1 {
        fill: #241e9b;
        stroke-width: 0px;
      }
    </style>
  </defs>
  <path class="cls-1" d="M180.73,32.51c1.49.3,2.75.54,4.01.81,2.62.56,5.06,1.49,7.32,3,2.54,1.69,3.34,3.98,2.89,6.86-.54,3.5-1.92,6.69-3.67,9.72-3.06,5.28-6.43,10.34-11.21,14.29-2.98,2.46-5.97,4.82-9.9,5.72-1.83.42-2.75-.6-3.71-1.67-.93-1.03-.5-2.15.11-3.17.59-1,1.25-1.95,1.88-2.92-.08-.14-.16-.27-.25-.41-.95.1-1.93.07-2.84.32-1.8.5-3.57,1.11-5.33,1.74-1.13.4-2.21.93-3.33,1.35-2.25.83-3.32.71-5.4-.56-.31.17-.7.33-1.01.59-1.19,1-2.53,1.13-3.97.78-1.31-.32-1.95-1.05-2.07-2.38-.04-.41-.04-.82-.07-1.53-.69.21-1.26.31-1.77.56-1.41.67-2.76,1.47-4.2,2.07-.99.42-2.08.72-3.15.85-2.13.26-2.75-.35-2.76-2.47,0-.76.02-1.53.04-2.57-.69.36-1.14.58-1.57.82-2.02,1.18-4.03,2.38-6.06,3.55-2.24,1.28-2.24,1.26-4.42-.49-.86.59-1.75,1.29-2.72,1.84-.85.48-1.75.94-2.69,1.15-2.28.5-3.06.07-4.2-2.09-.64-.06-1.35-.12-2.07-.18-4.32-.33-5.93-3.36-5.02-7.2.77-3.23,2.41-6.07,4.14-8.86,5.52-8.87,12.41-16.58,20.39-23.26,6.34-5.31,12.83-10.46,19.53-15.3,5.93-4.29,11.99-8.48,18.71-11.55,2.25-1.03,4.53-1.74,7.04-1.88,4.19-.22,5.35,3.14,3.52,5.82-1.79,2.61-3.58,5.25-5.7,7.59-3.45,3.82-7.2,7.37-10.75,11.11-2.94,3.09-5.78,6.28-8.63,9.45-.45.51-.71,1.18-1.04,1.75.87.94,1.71.69,2.5.53,3.43-.67,6.85-1.36,10.27-2.04.05-.01.1-.03.15-.03,3.48.13,5.86-1.92,8.31-4.01,5.58-4.77,11.19-9.5,16.95-14.05,2.93-2.31,6.2-4.18,9.33-6.23.92-.6,1.93-.75,2.98-.21.51,1.26.3,1.92-.92,2.66-5.78,3.49-10.55,8.08-14.63,13.41-1.17,1.53-2.35,3.05-3.51,4.59-.49.65-.95,1.33-1.53,2.16ZM117.56,44.41c.59.03,1,.13,1.38.06,2.46-.46,4.91-.91,7.35-1.47.59-.14,1.2-.58,1.61-1.05,1.22-1.42,2.71-2.03,4.42-1.37,1.51.58,2.96.49,4.44.13,4.91-1.18,9.01-3.93,12.55-7.31,7-6.67,13.81-13.56,20.52-20.52,2.25-2.34,4.08-5.11,5.88-7.83,1.2-1.8.26-3.26-1.91-3.37-.51-.02-1.07,0-1.55.15-1.87.64-3.82,1.14-5.54,2.06-5.37,2.86-10.67,5.84-15.61,9.45-9.84,7.19-19.58,14.48-28.05,23.3-1.08,1.12-2.26,2.15-3.3,3.31-1.07,1.19-1.95,2.53-2.2,4.45ZM118.64,64.58c.99.49,1.63.07,2.19-.35,3.1-2.37,6.17-4.77,9.25-7.16.68-.53,1.35-1.08,2-1.6.4.24.64.35.83.51q3.12,2.47,5.91-.46c.41-.43.96-.92,1.5-.99,1.19-.15,2-.78,2.77-1.59.32-.34.65-.68,1.03-.94.74-.52,1.53-.99,2.38-.18.71.67.68,1.5-.17,2.48-.57.67-1.23,1.27-1.87,1.88-1.86,1.74-3.76,3.43-5.58,5.21-.56.55-.91,1.32-1.35,2,1.05.93,1.95.59,2.76.11,1.43-.84,2.85-1.7,3.86-3.1,1.18-1.64,2.4-3.27,3.69-4.82,4.48-5.4,9-10.78,13.52-16.14.8-.95,1.72-1.8,2.59-2.69-3.11.26-6.08.82-9.07,1.17-6.8.79-13.11,2.75-18.6,7.01-1.02.79-2.21,1.39-3.38,1.93-2.12.98-3.82.51-5.23-1.3-.19-.24-.39-.46-.56-.65-2.96.46-5.84.91-8.71,1.37-.25.04-.48.2-.73.27-.99.27-2,.5-2.98.8-.51.16-1.15.34-1.45.72-2.91,3.82-5.41,7.88-6.89,12.49-.41,1.27-.47,2.53-.1,3.83.27.95.85,1.52,1.78,1.78,2.05.58,3.73.08,5.22-1.49,5.59-5.88,12.04-10.71,18.88-15.02,1.61-1.02,3.4-1.8,5.19-2.48,1.77-.67,4.14,1.18,4.19,3.14-.14.04-.29.13-.42.12-.25-.03-.52-.08-.73-.21-1.69-1-3.37-.86-5.05.01-6.18,3.23-11.3,7.75-15.89,12.92-.34.39-.51.93-.78,1.44ZM160.84,62.48c.1.14.19.28.29.42.6-.12,1.21-.19,1.79-.37,2.84-.86,5.69-1.7,8.5-2.65,1.04-.36,1.87-.22,2.54.54.65.73.08,1.45-.25,2.15-.76,1.59-1.54,3.17-2.25,4.79-.21.47-.19,1.04-.33,1.89.94-.15,1.67-.09,2.19-.39,1.98-1.12,4.01-2.21,5.81-3.59,4.04-3.12,7.21-7.07,9.89-11.37,1.9-3.04,3.64-6.18,4.1-9.85.5-4-.37-5.52-4.16-6.86-.25-.09-.49-.2-.74-.23-2.88-.38-5.76-.82-8.65-1.1-1.53-.15-2.81.53-3.91,1.62-2.44,2.42-4.93,4.79-7.39,7.19-1.72,1.67-3.43,3.34-5.12,5.04-.64.65-1.38,1.32-.84,2.65.68-.08,1.39-.09,2.05-.27.54-.15,1.01-.54,1.53-.77.75-.34,2.15.09,2.66.79.59.82.01,1.33-.47,1.89-1.8,2.08-3.6,4.17-5.39,6.27-.63.73-1.22,1.49-1.83,2.23ZM151.96,54.39c1.19.98,2.1.74,2.9.21,1.12-.74,2.25-1.52,3.22-2.45,5.25-4.97,10.45-9.98,15.67-14.99.23-.22.39-.53.6-.83-2.92-.79-5.25-.26-7.38,1.47-4.46,3.64-8.21,7.96-11.95,12.28-1.13,1.31-2.03,2.83-3.07,4.3ZM186.45,22.3c-.1-.13-.21-.26-.31-.39-.45.16-.99.21-1.33.49-3.91,3.24-7.92,6.39-11.52,10.5,1.31-.06,2.18-.15,3.05-.13,1.23.02,2.19-.4,2.97-1.37,2.09-2.57,4.24-5.1,6.34-7.67.34-.42.53-.96.79-1.45ZM163.74,55.12c-1.28-.42-2.05-.04-2.72.57-1,.9-1.98,1.82-2.93,2.77-.74.74-1.42,1.53-2.29,2.47,1.51.43,2.46.11,3.29-.71,1.28-1.27,2.59-2.53,3.85-3.82.29-.3.46-.73.79-1.27ZM152.07,60.14c-.91-.27-1.85-.03-2.5.81-.65.85-1.17,1.81-1.66,2.77-.32.63-.41,1.35.36,1.77.73.4,1.3-.03,1.77-.54.24-.26.43-.59.56-.92.5-1.26.96-2.54,1.46-3.88ZM155.37,66.67c-.08-.19-.16-.38-.24-.57-.35.17-.69.34-1.04.51.07.16.14.31.21.47.36-.14.71-.27,1.07-.41Z"/>
  <path class="cls-1" d="M69.34,48.28c1.62.94,2.62.22,3.54-.5,1.92-1.52,3.72-3.19,5.67-4.66,3.23-2.45,6.52-4.82,9.83-7.15.75-.53,1.69-.78,2.56-1.12.78-.3,1.8-.74,2.3.07.47.76.67,1.89.51,2.76-.16.84-.83,1.67-1.44,2.34-1.98,2.15-4.66,3.25-7.19,4.59-3.54,1.88-7.13,3.68-10.5,5.82-1.57,1-2.7,2.69-4,4.1-.22.24-.25.64-.39,1.02.84.51,1.58.3,2.29,0,7.87-3.47,15.6-7.18,22.72-12.06.41-.28.93-.52,1.42-.55,1.53-.09,2.25,1.05,1.46,2.35-.45.74-1.05,1.46-1.75,1.97-3.79,2.75-7.57,5.51-11.47,8.11-7.05,4.71-14.2,9.3-21.27,13.98-2.78,1.84-5.5,3.75-8.22,5.67-2.04,1.44-2.45,1.64-3.97,1.49.57-1.33,1.49-2.27,2.56-3.03,4.17-2.94,8.36-5.84,12.55-8.75,3.16-2.2,6.35-4.37,9.5-6.58.47-.33.82-.81,1.3-1.3-.92-.63-1.5-.2-2.07.1-2.4,1.25-4.75,2.59-7.19,3.75-1.01.48-2.18.76-3.3.84-1.7.12-2.62-.89-2.19-2.54.3-1.16.97-2.29,1.72-3.25.97-1.26,2.18-2.33,3.5-3.69-1.63-.31-2.39-1.36-2.88-2.93-1.23.57-2.35,1.07-3.45,1.59-2.96,1.4-5.86,2.93-8.89,4.18-2.44,1.01-4.82.76-6.64-1.48-.7-.85-1.49-.8-2.34-.22-.81.56-1.61,1.15-2.48,1.62-1.35.73-2.53.82-3.99.45-.12-.28-.29-.6-.4-.94-.1-.29-.13-.6-.19-.9-.74-.49-1.4-.29-2.07.09-.95.54-1.95,1-2.84,1.63-2.46,1.73-5.3,2.33-8.14,3.02-1.85.45-3.66,1.13-5.45,1.8-2.04.77-4,.65-5.86-.43-1.34-.78-1.78-2.3-1.29-3.82.43-1.34,2.06-2.49,3.54-2.29,1.07.15,2.17.42,3.12.91,1.82.93,3.44.94,5.1-.32,1.91-1.45,3.9-2.78,5.79-4.25.81-.63,1.51-1.44,2.12-2.27.94-1.29.68-2.99-.69-3.82-.9-.54-2.04-1.06-3.03-.99-1.9.12-3.77.64-5.65,1.04-.79.17-1.69.78-2.3-.04-.64-.86-.18-1.88.4-2.59.79-.95,1.77-1.74,2.68-2.59,1.71-1.6,3.48-3.12,5.11-4.79,1.41-1.45,2.66-3.06,3.95-4.62.41-.5.74-1.07,1.16-1.67-2.57-.56-13.7,6.44-15.3,9.45,0,.1-.02.24.04.3,2.04,2.42.4,4.64-.69,6.58-2.98,5.31-6.23,10.47-10.84,14.58-.76.68-1.7,1.22-2.65,1.59-1.57.6-2.71-.18-2.76-1.87-.03-1.07.1-2.2.41-3.23,1.4-4.53,3.72-8.56,6.81-12.16,5.13-5.99,11.3-10.74,17.8-15.11,2.7-1.81,5.67-3.06,8.82-3.91,1.05-.28,2.03-.25,2.67.68.63.91.47,1.93-.22,2.75-1.56,1.87-3.16,3.72-4.8,5.53-1.47,1.61-3.05,3.13-4.53,4.74-.45.49-.69,1.17-1.17,2,1,.32,1.66.61,2.34.74,2.82.57,4.4,2.45,5.25,5.01.42,1.27.35,2.56-.44,3.74-.27.4-.42.89-.63,1.33.08.12.15.24.23.37.49-.1,1.05-.07,1.45-.31,4.57-2.81,9.1-5.68,13.17-9.2,1.11-.95,1.66-.96,3.07.11-.43.54-.79,1.14-1.3,1.59-1.59,1.42-3.25,2.77-4.85,4.18-.42.37-.82.81-1.09,1.3-.14.26-.13.81.05.99.24.25.76.42,1.08.34.47-.12.94-.44,1.29-.79,2.02-2.09,4.15-4.11,5.97-6.36,5.11-6.32,11.25-11.53,17.4-16.77,3.23-2.75,6.72-5.09,10.43-7.12,1.09-.6,2.25-1.09,3.43-1.5,1.16-.4,2.28-.01,2.6.79.39.99-.11,1.71-.86,2.29-2.11,1.6-4.3,3.11-6.34,4.81-3.67,3.07-7.3,6.2-10.86,9.4-5.15,4.63-10.22,9.33-15.32,14.02-.65.59-1.3,1.23-1.76,1.96-.71,1.13-.2,1.96,1.12,1.89.87-.05,1.8-.17,2.57-.53,3.83-1.77,7.68-3.5,11.38-5.5,1.66-.9,3.08-2.31,4.43-3.66,5.33-5.34,10.56-10.78,15.88-16.14,3.28-3.3,7-6.06,11-8.44.76-.45,1.57-.84,2.4-1.12,1.78-.6,3.04.43,2.79,2.31-.19,1.45-.96,2.64-2.1,3.54-7.84,6.2-15.71,12.35-23.52,18.58-1.94,1.55-3.76,3.27-5.55,5-.52.5-.75,1.3-1.19,2.1ZM3.78,55.21c1.2.42,1.67-.48,2.22-1.1,2.89-3.23,5.08-6.95,7.25-10.67.49-.85.86-1.78,1.16-2.71.14-.45-.02-.99-.04-1.52-3.55.73-11.21,13.02-10.59,16.01ZM77.02,23.25c-.11-.19-.22-.38-.33-.56-.46.08-.98.07-1.37.28-.73.38-1.45.83-2.08,1.36-3.39,2.83-6.79,5.65-10.12,8.55-1.13.98-2.07,2.18-3.06,3.32-.28.32-.4.76-.62,1.19,1.18.71,1.87,0,2.51-.52,2.36-1.95,4.69-3.94,7.01-5.95,1.96-1.7,3.91-3.43,5.81-5.19.81-.75,1.5-1.63,2.25-2.45ZM85.96,30.37c.74-.33,1.39-.5,1.87-.87,3.09-2.36,6.16-4.76,9.21-7.18.33-.26.5-.73.8-1.19-2.71-.59-11.29,6.06-11.89,9.23ZM83.56,42.91c2.98-.16,5.69-2.22,5.52-4.27-1.87-.16-3.11,1.13-4.45,2.05-.66.46-1.51,1.02-1.06,2.22ZM18.11,56.6c-.67-.58-1.4-.81-2.14-.4-.32.18-.46.69-.67,1.05.33.19.65.52.98.54.83.04,1.48-.32,1.83-1.19Z"/>
</svg>