<?xml version="1.0" encoding="UTF-8"?>
<svg id="Layer_1" data-name="Layer 1" xmlns="http://www.w3.org/2000/svg" version="1.1" viewBox="0 0 486.62 73.7">
  <defs>
    <style>
      .cls-1 {
        fill: #9e2b24;
        stroke-width: 0px;
      }
    </style>
  </defs>
  <path class="cls-1" d="M0,68.35c2.55-7.48,5.7-14.79,8.84-22.02,5.87-13.6,12.16-26.95,18.87-40.21,5.36-3.15,13.43-4.59,19.55-4.59,10.03,0,16.24,3.06,16.24,14.03,0,23.55-27.03,55.51-51.51,55.51-4.17,0-8.25-.94-11.99-2.72ZM43.61,31.28c.34-1.19.68-2.47.68-3.74,0-3.57-2.29-6.29-5.95-6.29-.42,0-.93,0-1.36.08-6.29,9.78-11.73,20.57-15.98,31.37,10.12-2.21,19.55-11.56,22.61-21.42Z"/>
  <path class="cls-1" d="M84.66,53.89c-4.5.68-9.44,1.53-13.6,3.4-2.55,2.98-4.85,8.16-6.21,11.9-5.01,2.04-10.37,3.06-15.73,3.06-1.02,0-2.21,0-3.23-.17,10.37-21.93,25.16-45.22,40.29-64.44,8.5-3.83,22.02-6.21,31.45-7.31-8.08,21.51-15.13,43.78-20.32,66.14-5.78,3.06-13.09,5.78-19.64,6.63,1.96-6.55,4.42-12.92,6.97-19.21ZM90.1,37.57c2.72-5.1,4.68-10.97,6.21-16.49l-5.87,2.04c-3.74,4.93-6.88,10.54-9.86,15.98,2.98-.94,6.46-1.1,9.52-1.53Z"/>
  <path class="cls-1" d="M121.8,50.92l-6.54,15.56c-5.27.42-10.8,2.21-15.73,3.83,6.55-19.04,14.11-38.17,23.38-56.02,9.01-5.95,24.4-12.58,35.28-12.58,5.44,0,10.63,1.79,10.63,8.16,0,1.44-.25,2.72-.59,4.08-3.23,14.28-19.13,27.03-31.37,33.15l8.16,17.77c-3.06,3.4-9.86,5.78-14.11,6.63l-9.1-20.57ZM128.86,35.45c4.08-2.04,19.3-10.37,19.3-16.32,0-1.19-.85-1.62-1.96-1.62-2.81,0-7.57,2.3-10.12,3.66l-7.23,14.28Z"/>
  <path class="cls-1" d="M173.65,47.18c-4,6.21-6.38,13.86-8.84,20.74-5.18,1.96-10.8,3.91-16.32,4.59,7.74-22.1,17.94-47.01,29.67-67.16,5.87-1.87,12.33-3.4,18.45-3.83-4.33,6.72-7.82,14.2-11.39,21.34,10.46-5.95,20.66-12.41,30.77-18.87,1.27,4.85,1.87,10.03,1.87,15.05v1.53c-9.78,5.02-19.21,11.05-28.56,16.83,0,8.67,2.46,17.94,5.02,26.1-2.98,3.57-11.9,7.91-15.98,9.69-2.72-6.8-3.91-18.79-4.68-26.01Z"/>
  <path class="cls-1" d="M234.09,71.32c7.14-21.51,17.85-46.67,30.26-65.37,4.08-2.64,10.12-4.34,14.88-4.34,1.79,0,3.66.26,5.44.68-10.2,14.79-19.55,32.64-25.08,49.64,6.8-1.7,13.86-2.81,20.83-3.83-1.7,5.61-4.42,11.22-6.72,16.66-7.91,5.1-23.12,6.8-32.13,6.8-2.47,0-5.02-.09-7.48-.26Z"/>
  <path class="cls-1" d="M308.55,52.19c-3.4.34-6.89,1.02-10.12,2.04-2.89,4.34-5.87,9.1-7.82,13.94-4.76,1.44-11.48,3.23-16.49,3.23-.6,0-1.36,0-1.96-.17,10.37-20.74,25.84-45.48,41.48-63.16,9.69-3.4,21.59-7.31,31.96-8.08-4.76,8.76-8.59,18.02-12.41,27.2-5.36,13.01-10.46,26.1-15.3,39.27-5.36,2.55-13.52,5.61-19.55,5.87,2.89-6.8,6.12-13.94,10.2-20.15ZM313.9,36.38c2.21-5.44,4.93-10.8,7.65-15.98l-4.68,1.45c-3.57,5.02-7.31,10.2-10.29,15.56l7.31-1.02Z"/>
  <path class="cls-1" d="M331.41,54.15c0-4.33.94-8.59,2.38-12.67,7.65-21.25,27.63-39.87,51.17-39.87,3.4,0,6.71.43,10.03,1.19-1.87,6.29-4.84,12.24-8.5,17.68-2.21-.77-4.51-1.1-6.8-1.1-15.3,0-32.56,14.71-32.56,30.43,0,3.66,1.02,6.89,5.36,6.89,6.46,0,12.33-6.72,14.96-12.07l-9.61.51,6.63-10.71c8.16-2.13,16.58-3.4,24.99-4.42-6.04,15.39-15.47,30.01-30.26,38.25-3.66,2.04-7.65,3.4-11.82,3.4-10.29,0-15.98-7.74-15.98-17.51Z"/>
  <path class="cls-1" d="M404,7.57c12.41-3.32,25.84-4.59,38.59-5.44l-7.4,15.05-19.55,3.74c-2.21,3.4-4.25,6.97-5.87,10.63l16.92-1.36-5.36,12.07-15.98,2.72c-2.46,2.38-4.67,7.99-5.7,11.14l15.73-1.62-4.85,13.18c-11.39,2.98-23.29,4.59-34.94,6.04,8.16-22.53,18.11-44.54,28.39-66.14Z"/>
  <path class="cls-1" d="M438.42,52.87c-2.72,4.85-4.93,10.12-6.55,15.39l-14.54,2.38c1.87-7.31,4.93-14.54,7.82-21.42,5.35-13.09,11.48-25.93,17.68-38.59,7.74-3.23,16.32-5.7,24.65-5.7,7.06,0,19.13,2.47,19.13,12.07,0,1.53-.34,2.98-.93,4.42-5.19,13.77-20.91,20.4-33.58,23.46,1.79,6.38,6.04,15.73,9.69,21.17-3.66,2.98-8.84,5.27-13.26,6.21-2.97-1.87-8.84-16.24-10.12-19.38ZM467.41,21.85c.17-.34.25-.68.25-1.02,0-1.79-2.89-2.04-4.08-2.04-3.4,0-7.48,1.02-10.71,2.21-2.21,3.83-4.08,7.99-5.87,12.16,5.87-1.62,17.51-4.85,20.4-11.31Z"/>
</svg>