<?xml version="1.0" encoding="UTF-8"?>
<svg id="Layer_1" data-name="Layer 1" xmlns="http://www.w3.org/2000/svg" version="1.1" viewBox="0 0 512.55 73.79">
  <defs>
    <style>
      .cls-1 {
        fill: #4778d4;
        stroke-width: 0px;
      }
    </style>
  </defs>
  <path class="cls-1" d="M0,69.96C7.74,49.73,19.21,22.61,30.86,4.84c5.87-2.21,12.67-3.32,18.87-3.57-8.58,14.62-18.79,32.73-24.65,48.45h.51c6.12,0,13.77-2.04,19.55-4-2.04,6.89-5.78,13.69-9.27,19.89-7.74,3.06-19.3,6.29-27.54,6.29-2.8,0-5.95-.34-8.33-1.96Z"/>
  <path class="cls-1" d="M72.68,5.78c6.21-2.21,12.84-3.74,19.38-4.42-12.07,19.55-22.87,41.57-30.77,63.08-5.61,2.46-11.82,4.33-17.85,5.02,6.38-21.08,17-45.56,29.24-63.67Z"/>
  <path class="cls-1" d="M77.18,54.49c0-8.42,4.08-18.02,8.25-25.16C96.31,10.71,114.84.08,136.35,0c-4.08,5.35-7.57,11.39-10.37,17.51-1.02-.17-2.04-.25-3.15-.25-13.77,0-31.28,18.11-31.28,31.71,0,4.33,2.63,6.04,6.72,6.04,5.87,0,11.9-5.78,13.26-11.31l-11.56,2.29c2.47-4.76,5.19-9.69,8.59-13.86,8.42-2.21,17.43-3.32,26.1-4-5.78,15.64-22.27,42.42-41.31,42.42-10.2,0-16.15-5.95-16.15-16.07Z"/>
  <path class="cls-1" d="M161.16,42.84c-3.74.59-7.65,2.12-11.05,3.74-3.91,5.95-6.72,13.35-9.35,19.89-4.85,3.32-12.41,5.44-18.11,6.21,1.87-6.38,4.5-12.58,7.06-18.7,6.63-15.81,14.37-31.2,22.78-46.07,5.36-2.46,12.07-4.51,17.94-5.1-4.76,6.55-9.86,18.79-13.09,26.18l9.69-3.06c3.4-7.23,7.82-14.28,12.16-21,5.44-2.38,12.16-4.17,18.02-4.5-11.65,20.74-21.59,43.35-29.41,65.79-5.95,2.38-12.07,4.59-18.11,6.72,2.29-9.69,7.48-21.08,11.48-30.09Z"/>
  <path class="cls-1" d="M185.13,72.51c5.78-14.45,17.77-38.08,23.72-46.75l-22.95,5.44c2.72-6.72,6.21-13.69,10.63-19.38,17.94-4.85,38.42-7.91,56.87-10.54-2.21,6.46-5.7,12.84-9.35,18.53l-17.17,2.64c-9.1,13.18-16.49,31.11-21.42,46.41-5.02,1.87-11.73,4-17.09,4-1.11,0-2.21-.08-3.23-.34Z"/>
  <path class="cls-1" d="M260.01,71.41c7.14-21.51,17.85-46.67,30.26-65.37,4.08-2.64,10.12-4.34,14.88-4.34,1.79,0,3.66.26,5.44.68-10.2,14.79-19.55,32.64-25.08,49.64,6.8-1.7,13.86-2.8,20.83-3.83-1.7,5.61-4.42,11.22-6.72,16.66-7.91,5.1-23.12,6.8-32.13,6.8-2.47,0-5.02-.08-7.48-.25Z"/>
  <path class="cls-1" d="M334.47,52.28c-3.4.34-6.89,1.02-10.12,2.04-2.89,4.34-5.87,9.1-7.82,13.94-4.76,1.45-11.48,3.23-16.49,3.23-.6,0-1.36,0-1.96-.17,10.37-20.74,25.84-45.48,41.48-63.16,9.69-3.4,21.59-7.31,31.96-8.08-4.76,8.75-8.59,18.02-12.41,27.2-5.36,13.01-10.46,26.1-15.3,39.27-5.36,2.55-13.52,5.61-19.55,5.87,2.89-6.8,6.12-13.94,10.2-20.15ZM339.83,36.47c2.21-5.44,4.93-10.8,7.65-15.98l-4.68,1.45c-3.57,5.01-7.31,10.2-10.29,15.56l7.31-1.02Z"/>
  <path class="cls-1" d="M357.34,54.23c0-4.33.94-8.58,2.38-12.67,7.65-21.25,27.63-39.87,51.17-39.87,3.4,0,6.71.43,10.03,1.19-1.87,6.29-4.84,12.24-8.5,17.68-2.21-.77-4.5-1.11-6.8-1.11-15.3,0-32.56,14.71-32.56,30.43,0,3.66,1.02,6.89,5.36,6.89,6.46,0,12.33-6.72,14.96-12.07l-9.61.51,6.63-10.71c8.16-2.13,16.58-3.4,24.99-4.42-6.04,15.39-15.47,30.01-30.26,38.25-3.66,2.04-7.65,3.4-11.82,3.4-10.29,0-15.98-7.74-15.98-17.51Z"/>
  <path class="cls-1" d="M429.93,7.65c12.41-3.32,25.84-4.59,38.59-5.44l-7.4,15.05-19.55,3.74c-2.21,3.4-4.25,6.97-5.87,10.63l16.92-1.36-5.36,12.07-15.98,2.72c-2.46,2.38-4.67,7.99-5.7,11.14l15.73-1.62-4.85,13.18c-11.39,2.98-23.29,4.59-34.94,6.04,8.16-22.53,18.11-44.54,28.39-66.13Z"/>
  <path class="cls-1" d="M464.35,52.96c-2.72,4.84-4.93,10.12-6.55,15.39l-14.54,2.38c1.87-7.31,4.93-14.54,7.82-21.42,5.36-13.09,11.48-25.93,17.68-38.59,7.74-3.23,16.32-5.7,24.65-5.7,7.06,0,19.13,2.47,19.13,12.07,0,1.53-.34,2.98-.93,4.42-5.19,13.77-20.91,20.4-33.58,23.46,1.79,6.38,6.04,15.73,9.69,21.17-3.66,2.98-8.84,5.27-13.26,6.21-2.97-1.87-8.84-16.24-10.12-19.38ZM493.34,21.93c.17-.34.25-.68.25-1.02,0-1.79-2.89-2.04-4.08-2.04-3.4,0-7.48,1.02-10.71,2.21-2.21,3.83-4.08,7.99-5.87,12.16,5.87-1.62,17.51-4.85,20.4-11.31Z"/>
</svg>