<?xml version="1.0" encoding="UTF-8"?>
<svg id="Layer_1" data-name="Layer 1" xmlns="http://www.w3.org/2000/svg" version="1.1" viewBox="0 0 551.9 74.47">
  <defs>
    <style>
      .cls-1 {
        fill: #dc573d;
        stroke-width: 0px;
      }
    </style>
  </defs>
  <path class="cls-1" d="M36.38,52.96c-3.4.34-6.89,1.02-10.12,2.04-2.89,4.34-5.87,9.1-7.82,13.94-4.76,1.44-11.48,3.23-16.49,3.23-.6,0-1.36,0-1.96-.17C10.37,51.26,25.84,26.52,41.48,8.84c9.69-3.4,21.59-7.31,31.96-8.08-4.76,8.76-8.59,18.02-12.41,27.2-5.36,13.01-10.46,26.1-15.3,39.27-5.36,2.55-13.52,5.61-19.55,5.87,2.89-6.8,6.12-13.94,10.2-20.15ZM41.74,37.15c2.21-5.44,4.93-10.8,7.65-15.98l-4.68,1.45c-3.57,5.02-7.31,10.2-10.29,15.56l7.31-1.02Z"/>
  <path class="cls-1" d="M58.99,49.73c8.08-15.73,16.75-31.11,25.76-46.24,5.61-1.79,11.73-2.72,17.6-3.49-2.72,9.95-4.76,20.15-6.89,30.18,6.8-6.89,12.24-15.47,20.49-25.08,6.63-2.04,14.11-2.81,21-3.31-8.84,23.21-17.51,44.8-27.97,66.39-5.36,1.36-11.22,2.72-16.75,2.72-.51,0-.93-.08-1.44-.08,2.89-8.42,6.97-16.66,10.62-24.74-7.65,9.01-16.15,17.6-24.4,26.01v-2.04c0-7.14.25-14.37,1.36-21.42-4.42,6.72-7.99,14.2-11.39,21.42-6.04,2.3-13.18,3.15-19.55,4,3.4-8.33,7.48-16.32,11.56-24.31Z"/>
  <path class="cls-1" d="M141.19,13.69c10.37-5.19,24.23-9.95,35.96-9.95,6.21,0,12.16.85,12.16,8.33,0,8.84-11.48,15.73-18.19,19.13,4.85.43,9.01,4.76,9.01,9.69s-3.4,8.84-6.71,11.9c-14.2,13.26-38.93,19.13-57.72,20.83,4.5-18.36,16.75-43.52,25.5-59.93ZM157.68,43.78c0-2.29-2.46-2.47-4.17-2.47-2.98,0-7.65.94-10.37,2.21-1.96,4.25-3.91,8.67-5.36,13.09,4.85-1.44,19.89-6.46,19.89-12.84ZM164.9,19.38c0-1.19-1.28-1.44-2.21-1.44-2.81,0-6.97,1.44-9.69,2.46-1.62,3.57-3.14,7.14-4.84,10.63,4.42-1.19,16.75-5.78,16.75-11.65Z"/>
  <path class="cls-1" d="M198.82,8.33c12.41-3.32,25.84-4.59,38.59-5.44l-7.4,15.05-19.55,3.74c-2.21,3.4-4.25,6.97-5.87,10.63l16.92-1.36-5.36,12.07-15.98,2.72c-2.46,2.38-4.67,7.99-5.7,11.14l15.73-1.62-4.85,13.18c-11.39,2.98-23.29,4.59-34.94,6.04,8.16-22.53,18.11-44.54,28.39-66.14Z"/>
  <path class="cls-1" d="M233.24,53.64c-2.72,4.85-4.93,10.12-6.55,15.39l-14.54,2.38c1.87-7.31,4.93-14.54,7.82-21.42,5.35-13.09,11.48-25.93,17.68-38.59,7.74-3.23,16.32-5.7,24.65-5.7,7.06,0,19.13,2.47,19.13,12.07,0,1.53-.34,2.98-.93,4.42-5.19,13.77-20.91,20.4-33.58,23.46,1.79,6.38,6.04,15.73,9.69,21.17-3.66,2.98-8.84,5.27-13.26,6.21-2.97-1.87-8.84-16.24-10.12-19.38ZM262.23,22.61c.17-.34.25-.68.25-1.02,0-1.79-2.89-2.04-4.08-2.04-3.4,0-7.48,1.02-10.71,2.21-2.21,3.83-4.08,7.99-5.87,12.16,5.87-1.62,17.51-4.85,20.4-11.31Z"/>
  <path class="cls-1" d="M299.37,72.09c7.14-21.51,17.85-46.67,30.26-65.37,4.08-2.64,10.12-4.34,14.88-4.34,1.79,0,3.66.26,5.44.68-10.2,14.79-19.55,32.64-25.08,49.64,6.8-1.7,13.86-2.81,20.83-3.83-1.7,5.61-4.42,11.22-6.72,16.66-7.91,5.1-23.12,6.8-32.13,6.8-2.47,0-5.02-.09-7.48-.26Z"/>
  <path class="cls-1" d="M373.83,52.96c-3.4.34-6.89,1.02-10.12,2.04-2.89,4.34-5.87,9.1-7.82,13.94-4.76,1.44-11.48,3.23-16.49,3.23-.6,0-1.36,0-1.96-.17,10.37-20.74,25.84-45.48,41.48-63.16,9.69-3.4,21.59-7.31,31.96-8.08-4.76,8.76-8.59,18.02-12.41,27.2-5.36,13.01-10.46,26.1-15.3,39.27-5.36,2.55-13.52,5.61-19.55,5.87,2.89-6.8,6.12-13.94,10.2-20.15ZM379.18,37.15c2.21-5.44,4.93-10.8,7.65-15.98l-4.68,1.45c-3.57,5.02-7.31,10.2-10.29,15.56l7.31-1.02Z"/>
  <path class="cls-1" d="M396.69,54.91c0-4.33.94-8.59,2.38-12.67,7.65-21.25,27.63-39.87,51.17-39.87,3.4,0,6.71.43,10.03,1.19-1.87,6.29-4.84,12.24-8.5,17.68-2.21-.77-4.51-1.1-6.8-1.1-15.3,0-32.56,14.71-32.56,30.43,0,3.66,1.02,6.89,5.36,6.89,6.46,0,12.33-6.72,14.96-12.07l-9.61.51,6.63-10.71c8.16-2.13,16.58-3.4,24.99-4.42-6.04,15.39-15.47,30.01-30.26,38.25-3.66,2.04-7.65,3.4-11.82,3.4-10.29,0-15.98-7.74-15.98-17.51Z"/>
  <path class="cls-1" d="M469.28,8.33c12.41-3.32,25.84-4.59,38.59-5.44l-7.4,15.05-19.55,3.74c-2.21,3.4-4.25,6.97-5.87,10.63l16.92-1.36-5.36,12.07-15.98,2.72c-2.46,2.38-4.67,7.99-5.7,11.14l15.73-1.62-4.85,13.18c-11.39,2.98-23.29,4.59-34.94,6.04,8.16-22.53,18.11-44.54,28.39-66.14Z"/>
  <path class="cls-1" d="M503.71,53.64c-2.72,4.85-4.93,10.12-6.55,15.39l-14.54,2.38c1.87-7.31,4.93-14.54,7.82-21.42,5.35-13.09,11.48-25.93,17.68-38.59,7.74-3.23,16.32-5.7,24.65-5.7,7.06,0,19.13,2.47,19.13,12.07,0,1.53-.34,2.98-.93,4.42-5.19,13.77-20.91,20.4-33.58,23.46,1.79,6.38,6.04,15.73,9.69,21.17-3.66,2.98-8.84,5.27-13.26,6.21-2.97-1.87-8.84-16.24-10.12-19.38ZM532.69,22.61c.17-.34.25-.68.25-1.02,0-1.79-2.89-2.04-4.08-2.04-3.4,0-7.48,1.02-10.71,2.21-2.21,3.83-4.08,7.99-5.87,12.16,5.87-1.62,17.51-4.85,20.4-11.31Z"/>
</svg>